<?xml version="1.0" encoding="UTF-8"?> <svg xmlns="http://www.w3.org/2000/svg" id="Layer_1" data-name="Layer 1" viewBox="0 0 150 42"><defs><style>.cls-1{fill:#222337;}.cls-2{fill:#ef5350;}</style></defs><title>SP Logo with plum color</title><path class="cls-1" d="M55.31,29.9a7.63,7.63,0,0,1-4.22-1.12,6.06,6.06,0,0,1-2.41-3.05l2.85-1.67a3.79,3.79,0,0,0,3.88,2.58,3.4,3.4,0,0,0,2.05-.5,1.58,1.58,0,0,0,.65-1.28,1.55,1.55,0,0,0-.79-1.39,12,12,0,0,0-2.85-1.07,17.91,17.91,0,0,1-1.92-.68,7.82,7.82,0,0,1-1.56-.9,3.72,3.72,0,0,1-1.2-1.44,4.7,4.7,0,0,1-.41-2A4.49,4.49,0,0,1,51,13.71a5.91,5.91,0,0,1,3.92-1.37,6.56,6.56,0,0,1,3.6,1A6.76,6.76,0,0,1,61,16.13l-2.8,1.61a3.38,3.38,0,0,0-3.23-2.17A2.57,2.57,0,0,0,53.3,16a1.51,1.51,0,0,0-.59,1.22,1.54,1.54,0,0,0,.66,1.29,9.44,9.44,0,0,0,2.55,1.08l1.17.37c.26.09.62.22,1.08.41a6.15,6.15,0,0,1,1.06.52,8.45,8.45,0,0,1,.86.65,3.1,3.1,0,0,1,.73.84,4.67,4.67,0,0,1,.44,1,4.77,4.77,0,0,1,.18,1.34,4.52,4.52,0,0,1-1.7,3.71,6.8,6.8,0,0,1-4.43,1.38Z"></path><path class="cls-1" d="M106.06,30a4.38,4.38,0,0,1-3.27-1.32A5.1,5.1,0,0,1,101.5,25V20.86H99.41v-3h2.09V15.43l3.12-.94v3.38h1.44v3h-1.44v3.79a2.45,2.45,0,0,0,.65,1.84,2,2,0,0,0,.79.49v3Z"></path><path class="cls-1" d="M134,18.85a3.29,3.29,0,0,0-3.43,3.63v7.44h-1.22V22.48A4.41,4.41,0,0,1,134,17.7v1.15Z"></path><path class="cls-1" d="M140.69,17.24A6.3,6.3,0,1,0,147,23.53,6.26,6.26,0,0,0,140.69,17.24Zm0,11.43a5.14,5.14,0,1,1,5.08-5.14A5.08,5.08,0,0,1,140.69,28.67Z"></path><path class="cls-1" d="M122.88,13h-5.74V29.93h1.28V23.48h4.46a5.09,5.09,0,0,0,5.26-5.2A5.11,5.11,0,0,0,122.88,13Zm0,9.24h-4.46v-8h4.46a3.86,3.86,0,0,1,4,4A3.86,3.86,0,0,1,122.88,22.28Z"></path><path class="cls-1" d="M109.46,16.42a1.93,1.93,0,0,1-1.9-1.9,1.87,1.87,0,0,1,.56-1.35,1.81,1.81,0,0,1,1.34-.58,1.84,1.84,0,0,1,1.37.58,1.87,1.87,0,0,1,.56,1.35,1.83,1.83,0,0,1-.56,1.33,1.87,1.87,0,0,1-1.37.57Z"></path><polygon class="cls-1" points="107.92 29.92 107.92 17.87 111.03 17.87 111.03 29.92 107.92 29.92 107.92 29.92"></polygon><path class="cls-1" d="M97.55,15.7c-1.7-.13-2.56.55-2.56,2.05v.12h2.56v3H95v9.06H91.88V20.86H90.15v-3h1.73v-.12a5.07,5.07,0,0,1,1.43-3.89,5.48,5.48,0,0,1,4.24-1.15v3Z"></path><path class="cls-1" d="M85.18,17.5h3.11V29.56H85.18V28.21a4,4,0,0,1-3.59,1.69,4.35,4.35,0,0,1-3.27-1.33A5,5,0,0,1,77,24.91V17.5h3.11v7a2.51,2.51,0,0,0,.65,1.85,2.38,2.38,0,0,0,1.74.63,2.61,2.61,0,0,0,1.93-.74A3.14,3.14,0,0,0,85.18,24V17.5Z"></path><path class="cls-1" d="M70.17,17.17a4.34,4.34,0,0,1,3.26,1.32,5.06,5.06,0,0,1,1.3,3.67v7.4H71.61v-7A2.43,2.43,0,0,0,71,20.7a2.34,2.34,0,0,0-1.73-.64,2.55,2.55,0,0,0-1.93.75,3.11,3.11,0,0,0-.72,2.24v6.51H63.46V12.68h3.12v6.17a4,4,0,0,1,3.59-1.68Z"></path><path class="cls-2" d="M23.73,4.14a16.86,16.86,0,0,1,0,33.72v3.87a20.73,20.73,0,1,1,0-41.46V4.14Zm7.74,9.12A11,11,0,1,0,34.67,21a10.92,10.92,0,0,0-3.2-7.74Z"></path></svg> 