<?xml version="1.0" encoding="utf-8"?>
<!-- Generator: Adobe Illustrator 23.0.4, SVG Export Plug-In . SVG Version: 6.00 Build 0)  -->
<svg version="1.1" id="Layer_1" xmlns="http://www.w3.org/2000/svg" xmlns:xlink="http://www.w3.org/1999/xlink" x="0px" y="0px"
	 viewBox="0 0 670 740" style="enable-background:new 0 0 670 740;" xml:space="preserve">
<style type="text/css">
	.st0{opacity:0.83;}
	.st1{fill:#E1E1E0;}
	.st2{fill:#212E8D;}
	.st3{fill:none;}
	.st4{fill:#FFFFFF;stroke:#737373;stroke-width:0.75;stroke-miterlimit:10;}
	.st5{fill:none;stroke:#212E8D;stroke-width:3;stroke-linecap:round;stroke-miterlimit:10;}
	.st6{fill:none;stroke:#212E8D;stroke-width:4;stroke-linecap:round;stroke-miterlimit:10;}
	.st7{opacity:0.46;}
	.st8{fill:#FFFFFF;}
	.st9{opacity:0.54;}
	.st10{opacity:0.57;}
	.st11{fill:#32B0FF;}
	.st12{fill:#D9D9D9;}
	.st13{opacity:0.53;}
	.st14{fill:none;stroke:#32B0FF;stroke-width:3;stroke-linecap:round;stroke-miterlimit:10;stroke-dasharray:10;}
	.st15{opacity:0.55;fill:url(#Path-64_1_);enable-background:new    ;}
	.st16{fill:#101F41;}
	#lines{
	animation: lines-anim 2s infinite;
	    animation-timing-function: cubic-bezier(0, 0, 0, 0);
	stroke-dasharray: 10;
}

@keyframes lines-anim{
	0%{
	stroke-dashoffset: 0;
	}
	100%{
	stroke-dashoffset: -60;
	}
}
</style>
<g class="st0">
	<path class="st1" d="M197,299.3c0.6-2.9,2.8-7.1,2.5-10s-1.1-4.8-1.1-4.8s7.5,4.1,9,7.5c0.5,1.2-14.4,15.7-14.5,17.5"/>
</g>
<g class="st0">
	<path class="st1" d="M454.2,423.6c0,0,4.2,5.4-3.4,6.4c-7.5,1-18.8,2.1-17.5,8.6s14.7-0.7,20.5-6.2s7.6-6,7-9.6
		C459.8,417.3,454.2,423.6,454.2,423.6z"/>
</g>
<g>
	<path class="st2" d="M172.2,321.3c40.4,12.7,53.2,57.6,53.4,95.2c0.1,25-7.8,49.2-6,74.2c1.1,15.2,3.9,30.2,7.3,44.9
		c1.6,7,3.9,14.3,2.4,21.5c-2-0.6-4-1.1-6-1.7c0.6-1.8-5.3-3.1-7.7-3.3c-14-1.1-29.6,4.3-42.4,9c-18.8,6.9-37.8,20-58,22.3
		c-1.8,0.2-3.3-1.1-3.5-2.9c-3.2-24.6-6.7-49.7-16.5-72.8c-9.2-21.6-20.9-40.5-24.3-64.2c-0.6-4.2,5.6-5.3,6.2-1
		c3.6,25.2,17.4,45.2,26.3,68.5c8.3,21.8,11.5,45.4,14.5,68.5c-1.2-1-2.3-1.9-3.5-2.9c13.9-1.6,27.2-9.6,39.9-15.1
		c16-7,32.7-13.3,50.2-15.6c7.1-0.9,29.8-2,24.7,11.9c-1.3,3.5-6.8,2-6-1.7c1.4-6.8-1.2-14.1-2.7-20.8c-3.2-13.9-5.8-28.1-6.9-42.3
		c-1.7-21.8,4-42.5,5.5-64c2.7-38.6-6.9-88.3-49.3-101.7C165.9,326.4,168.3,320,172.2,321.3L172.2,321.3z"/>
</g>
<g>
	<path class="st2" d="M403,537.8c-36.4,36.4-73.2,72.5-111.1,107.5c-18.9,17.4-37.4,35.2-60.1,47.5c-14.5,7.8-28.4,13.7-44.4,6.5
		c-8.5-3.8-14.5-10-19.9-17.5c-4.8-6.6-10.6-12.7-15-19.6c-9.1-14.2-14.2-31.6-19.7-47.4c-4.1-11.7-7.9-23.5-11.5-35.4
		c-1.2-3.9,4.5-6.9,5.8-2.7c7.1,23.6,14.7,47.5,24.7,70c2.3,5.2,4.7,10.5,8.2,15c6,7.6,11.7,16.3,18.4,23.2
		c17.7,18.2,37.2,9.4,56-1.2c20.4-11.4,37.5-28.8,54.5-44.6c23.6-21.8,46.7-44.1,69.7-66.6c13.6-13.3,27.2-26.7,40.6-40.1
		C402.3,529.4,405.8,535,403,537.8L403,537.8z"/>
</g>
<g>
	<path class="st2" d="M371.8,501c-20,15.5-40.5,30.6-61.7,44.5c-10.5,6.9-21.3,14.2-33.3,18.3c-22.8,7.8-45.9,14.8-56.7,38.6
		c-1.8,4-7.5,1.3-5.8-2.6c8.6-19.1,25-30,44.2-37.1c15.8-5.8,29.4-10.8,43.7-19.9c22.7-14.5,44.5-30.6,65.8-47.2
		C371.5,493,375,498.6,371.8,501L371.8,501z"/>
</g>
<g>
	<path class="st2" d="M224.9,549.3c1.1,12.7,2.3,25.5,3.4,38.2c0.4,4.2-5.8,5.4-6.2,1c-1.1-12.7-2.3-25.5-3.4-38.2
		C218.3,546.1,224.5,544.9,224.9,549.3L224.9,549.3z"/>
</g>
<g>
	<path class="st2" d="M271.9,185.8c1.5-0.4,2.9-0.7,4.4-1.1c4-1,1.9-7.4-2.1-6.5c-2.8,0.7-5.6,1.4-8.4,2.1l0,0
		c-2.3,0.6-4.7,1.2-7,1.7c-3.6,0.9-2.2,6.3,1.1,6.5l0,0l0,0c-1.5,4.4-0.3,8.8,2.8,9.9c3.1,1.2,7.1-1.5,8.8-6.1
		C272.3,190,272.4,187.7,271.9,185.8c-3.7,0.9-7.3,1.8-11,2.7c-0.2,0-0.3,0.1-0.5,0.1c0.2,0,0.3,0,0.5-0.1
		C264.5,187.6,268.2,186.7,271.9,185.8c-0.5-1.8-1.5-3.1-3.1-3.7c-0.8-0.3-1.7-0.4-2.6-0.1c0.9-0.2,1.8-0.2,2.6,0.1
		C270.3,182.6,271.4,184,271.9,185.8z M266.4,194.2C266.4,194.3,266.4,194.3,266.4,194.2C266.3,194.3,266.3,194.3,266.4,194.2
		C266.3,194.3,266.3,194.3,266.4,194.2C266.4,194.3,266.4,194.3,266.4,194.2z M264.8,197c0,0.2,0.1,0.5,0.2,0.6
		C264.9,197.5,264.8,197.3,264.8,197z"/>
	<path class="st2" d="M289.1,164c0.5,0,2.3-1.4,1-2.7c-4.8-4.8-20.2-2.8-27,0c0,0-6.8,2.7-8.4,4.7c-1,1.2,0.1,4.3,2.3,5.5
		c3.9,2,7.4-4.8,16.4-6.6C281.8,163.3,284.3,163.9,289.1,164z"/>
	<path class="st2" d="M134.1,228.8c0.2,0.8,0.2,1.7-0.2,2.5c8-3,14.8-8.6,22.3-12.8c10.7-6,24.3-5.9,14.5-20.4
		c-5.5-8.2-13.3-19.1-9.5-29.5c1.9-5.2,6.6-9.8,12.6-8.4c6.6,1.6,9.6,9.2,11.2,14.9c2.6,9.4-2.2,19.1,6.2,25.4
		c5.9,4.4,12.7,4.4,15.2-3c3.9-11,0.6-25,8.6-34.6c5.5-6.7,17.2-6.2,20.9-14.4c5.5-12.2-2-27.1-5-38.8c0,0,0,0,0-0.1l0,0
		c-0.8-13.5,17-21.3,28.5-21.6c11.3-0.3,21.2,7.6,31.1,12.1c1.7,0.7,3.2,1.4,4.8,1.9c0,0.1,0,0.1,0,0.2c4.1,19,8,40.3,5.2,59.7
		c-1.6,11.6-9.3,20.2-13.3,30.8c-2.9,7.9-0.4,15.3,2.4,22.9c1.8,5.1,5.3,11.1,5.7,16.5c0.7,8.3-7.2,8.6-13.8,10
		c-11.2,2.4-12.7,4.3-18.1,14.1c-4.4,7.9-12.7,15-18.8,21.7c-7.9,8.7-15.9,20.7-28.6,13.2c-1.5-0.9-3.1-2-4.5-3.1l0,0
		c-8.8-6.8-16.3-16.9-22.7-25.5c-7.2-9.7-9.6-22.8-8.7-34.8c0.3-4.1-5.9-6-6.2-1.6c-0.9,12.5,0.9,26.6,7.8,37.3
		c6.4,9.9,15.4,21.1,25.1,29c0.8-0.9,1.5-1.8,2.3-2.8c-0.7,1-1.5,1.9-2.3,2.8c-5.9,6.7-12.2,11.5-16.9,22.7
		c-0.7,1.6,4.1,0.8,4.1,0.8c7.5-16.6,9.3-14.5,15.2-21.6l0,0c1,0.7,1.9,1.4,2.9,2c21.6,14,36.4-13.9,49.5-27.5
		c3.8-3.9,5.9-7.7,8.8-12.3c4.8-7.5,10.3-7.2,18.3-9.1c8.9-2.1,14.7-5.2,12.9-15.1c-2.2-12.7-13.4-26-7.8-38.9
		c5.1-11.8,12.1-21.2,13.2-34.4c1.4-18.5-1.6-37.8-5.4-55.9c-0.2,0-0.3,0-0.5,0c0.2,0,0.3,0,0.5,0l0,0l0,0l0,0l0,0
		c3.3,0,6.6-0.9,10.2-2.8c18-9.9,21.1-27,15.4-42.9l0,0c-2.3-6.6-6.1-12.9-10.9-18.5c-1.1-1.3-3.5-1.2-4.5,0.2
		c-7.6,10-18.2,1.8-26.2-2.4c-9.5-5-19.2-9.7-29.1-13.9c-22.8-9.6-48.2-17.8-73.3-16c-5.8,0.4-11.7,1.4-17.2,3.2
		c-2.5,0.8-6.7,3.5-8.3,3.8c-1.3,0.2-2.7,0.3-4,0.4l0,0c-4.5,0-9.3-0.8-13.8,0c-22.2,3.8-35.6,20.1-40.5,41.4
		c-0.7,3.1-10,36.3-4.1,64.2c4.3,20.5,11.3,40.6,16.8,60.9c2.6,9.6,5.2,19.2,7.4,28.9c1.4,6,3.8,13.5,2.7,19.7
		c0.9-0.5,1.9-0.9,2.9-1.3c-1,0.4-2,0.8-2.9,1.3l0,0c-0.1,0.7,0,1.6,0.4,2.3c-0.4-0.7-0.5-1.6-0.4-2.3c-11,5.6-16.6,18.8-17.6,30.9
		c-2.1,25.1,11.1,38.2,33.4,46.6c4,1.5,4.9-5.1,1.2-6.6c-20.1-7.6-31-19.3-28-42c1.4-10.5,7.9-23.3,19.7-24.8c1.3-0.2,2.1-1,2.5-1.9
		l0,0C134.2,230.5,134.3,229.6,134.1,228.8L134.1,228.8L134.1,228.8"/>
	<path class="st2" d="M211.8,289.5c0-0.6-0.1-1-0.4-1.2l0,0C211.6,288.5,211.8,289,211.8,289.5z"/>
	<path class="st2" d="M272,87.2c0,0-0.1,0-0.1-0.1C271.9,87.2,272,87.2,272,87.2z"/>
	<path class="st2" d="M312.6,43.8L312.6,43.8L312.6,43.8L312.6,43.8L312.6,43.8z"/>
	<path class="st2" d="M295.4,102v-0.1V102c0.4,0.1,0.7,0.2,1.1,0.3C296.1,102.2,295.8,102.1,295.4,102z"/>
</g>
<g>
	<path class="st2" d="M480.3,688.8c-0.6,0-1.3-0.2-1.9-0.5c-13.6-8.3-30.1-17.8-44.7-26.2c-13.2-7.6-23.6-13.5-28.1-16.5
		c-17.4-11.4-41.2-31-63.5-52.3c-1.4-1.4-1.5-3.6-0.1-5s3.6-1.5,5-0.1c22,21.1,45.4,40.4,62.4,51.5c4.3,2.8,15.2,9,27.7,16.3
		c14.6,8.4,31.2,17.9,44.9,26.2c1.7,1,2.2,3.2,1.2,4.9C482.7,688.2,481.5,688.8,480.3,688.8z"/>
</g>
<g>
	<path class="st2" d="M61.7,720.4c-1.8,0-3.3-1.3-3.5-3.1c-1.4-9.7-3.7-16.8-6.4-25.1c-3.3-10.3-7.1-21.9-9.7-41
		c-6.8-50.1-12.4-89.6-16.9-121.4c-18-127-18-127-3.8-162.4c3.1-7.7,7-17.3,11.5-30.4c2.8-8.1,14.5-20.9,26.9-34.5
		c9.5-10.5,22.6-24.8,23-29c1.1-13.9,8.3-26.6,20.8-36.6c9.3-7.5,18.2-10.9,18.6-11c1.8-0.7,3.9,0.2,4.6,2.1s-0.2,3.9-2.1,4.6l0,0
		c-0.3,0.1-32.5,12.6-34.8,41.5c-0.5,6.4-9.8,16.8-24.8,33.3c-10.8,11.9-23.1,25.3-25.4,32c-4.5,13.3-8.5,23-11.6,30.8
		c-13.5,33.6-13.5,33.6,4.2,158.7c4.5,31.8,10.1,71.3,16.9,121.4c2.5,18.5,6.2,29.8,9.4,39.8c2.6,8.2,5.2,16,6.7,26.3
		c0.3,2-1.1,3.8-3,4C62.1,720.4,61.9,720.4,61.7,720.4z"/>
</g>
<g>
	<path class="st2" d="M253.5,571.2c-1.7,0-3.2-1.2-3.5-3c-2.5-15,7.3-106.1,8-112.3c-0.1-18.5-10-60-17.8-74.3
		c-6-11-41.6-75.4-42-76.1c-1-1.7-0.3-3.9,1.4-4.9c1.7-1,3.9-0.3,4.9,1.4c0.4,0.6,36,65.1,42,76.1c8.4,15.4,18.7,58.3,18.7,77.9v0.4
		c-2.9,26.7-10,98.7-8,110.5c0.3,2-1,3.8-2.9,4.1C253.8,571.2,253.6,571.2,253.5,571.2z M261.5,456.1L261.5,456.1L261.5,456.1z"/>
</g>
<g>
	<path class="st2" d="M281.7,536.9c-8.9,0-22-15.6-27.4-22.7c-1.2-1.6-0.9-3.8,0.6-5c1.6-1.2,3.8-0.9,5,0.6
		c10.8,14,19,19.7,21.4,19.9c0-0.1,0-0.2,0.1-0.2c5.7-24,28.7-43,43.9-55.5c5.3-4.3,11.7-9.7,12.8-11.8
		c-4.7-12.2-14.6-20.5-24.1-28.5c-7.8-6.5-16-13.3-21.1-22.2c-46.7-80.8-83.4-89.3-83.8-89.4c-1.9-0.4-3.2-2.3-2.8-4.2
		c0.4-1.9,2.3-3.2,4.2-2.8c1.6,0.3,39.9,8.7,88.6,92.8c4.5,7.8,11.8,13.9,19.5,20.3c10.4,8.7,21.2,17.7,26.4,32
		c1.9,5.2-4.1,10.2-15.2,19.3c-14.5,11.9-36.4,29.9-41.5,51.6c-1,4.1-3.7,5.2-5.2,5.6C282.7,536.8,282.2,536.9,281.7,536.9z
		 M338.4,462.7L338.4,462.7L338.4,462.7z"/>
</g>
<g>
	<path class="st2" d="M257.9,709.1c-0.1,0-0.3,0-0.4,0c-2-0.2-3.4-2-3.2-3.9l4-37.3c0.2-2,2-3.4,3.9-3.2s3.4,2,3.2,3.9l-4,37.3
		C261.3,707.7,259.7,709.1,257.9,709.1z"/>
</g>
<g>
	<path class="st2" d="M364.7,504.7c-1.2,0-2.4-0.6-3.1-1.8c-12-20.3-24.6-32.6-24.8-32.7c-1.4-1.4-1.5-3.6-0.1-5s3.6-1.5,5-0.1
		c0.5,0.5,13.4,13,26,34.2c1,1.7,0.4,3.9-1.3,4.9C365.9,504.6,365.3,504.7,364.7,504.7z"/>
</g>
<g>
	<path class="st2" d="M305.3,545.1c-0.7,0-1.3-0.2-1.9-0.5c-10.5-6.7-18.8-17-19.2-17.4c-1.2-1.5-1-3.8,0.6-5c1.5-1.2,3.8-1,5,0.6
		c0.1,0.1,7.9,9.8,17.4,15.8c1.7,1,2.2,3.3,1.1,4.9C307.6,544.5,306.5,545.1,305.3,545.1z"/>
</g>
<g>
	<path class="st2" d="M193.2,320c-7.5,0-15.1-1.1-22.3-3.2c-1.9-0.5-3-2.5-2.4-4.4c0.5-1.9,2.5-3,4.4-2.4c9.7,2.8,20.1,3.6,30.1,2.2
		c2-0.3,3.8,1.1,4,3c0.3,2-1.1,3.8-3,4C200.5,319.8,196.9,320,193.2,320z"/>
</g>
<g>
	<path class="st3" d="M479.5,662"/>
</g>
<g>
	<path class="st3" d="M470.7,680.2"/>
</g>
<g>
	<path class="st4" d="M478.8,691.5"/>
</g>
<g>
	<path class="st2" d="M71.6,382.5c-0.3,0-0.6,0-0.9-0.1c-1.9-0.5-3.1-2.4-2.6-4.3c5.7-23.1,12.4-43.1,36.1-52.2
		c1.8-0.7,3.9,0.2,4.6,2s-0.2,3.9-2,4.6c-20.6,8-26.4,25.4-31.8,47.3C74.7,381.4,73.2,382.5,71.6,382.5z"/>
</g>
<g>
	<path class="st5" d="M465,675.9"/>
</g>
<g>
	<path class="st6" d="M494.6,669.3"/>
</g>
<g>
	<path class="st2" d="M498.5,667.8L498.5,667.8c-0.4,0-0.7-0.4-0.7-0.7c0.3-3,2.5-5.2,4.3-6.4c1.4-1,3.6-2,4.2-1.9
		c0.4,0.1,0.6,0.5,0.5,0.8s-0.4,0.5-0.7,0.5c-0.7,0.1-6.5,2.5-7,7.1C499.2,667.6,498.9,667.8,498.5,667.8z"/>
</g>
<g>
	<g>
		<path class="st6" d="M612.8,700.8"/>
	</g>
	<g class="st7">
		<path class="st1" d="M559.2,650.6l3.9-0.1l37.8,4.2l14.9,1.8c0,0-0.6,1.2-2.8,1.5c-6.3,0.9-19.7,0-23.4-1
			c-5-1.4-26.6-0.2-27.9-0.2s-5.6,4.1-5.6,4.1L559.2,650.6z"/>
	</g>
	<g>
		<path class="st2" d="M641.9,685.2c-1,0-2-0.4-2.7-1.2c-1.3-1.5-1.2-3.7,0.3-5l16.1-14.2c-1.3-1-2.9-1.8-4.4-1.8l0,0
			c-1.6,0-3.1,0.9-4.6,2.8c-1.2,1.5-3.5,1.8-5,0.5c-1.5-1.2-1.8-3.5-0.5-5c3.7-4.5,7.6-5.3,10.2-5.4c6.8,0,11.9,6.1,12.4,6.8
			l2.1,2.7l-21.5,19C643.6,684.9,642.8,685.2,641.9,685.2z"/>
	</g>
	<g>
		<path class="st2" d="M637.3,663.5c-0.2,0-0.4,0-0.6,0c-1.9-0.3-3.2-2.2-2.9-4.1l1.4-8c-1.1,0.2-2.3,0.5-3.3,1.2
			c-1.5,1.1-2.5,2.8-2.8,5.4c-0.3,2-2.1,3.3-4,3s-3.3-2.1-3-4c0.7-4.6,2.6-8,5.8-10.2c5.2-3.7,11.6-2.5,12.3-2.3l3.4,0.7l-2.7,15.5
			C640.5,662.3,639,663.5,637.3,663.5z"/>
	</g>
	<g>
		<path class="st5" d="M608.5,700.8"/>
	</g>
	<g>
		<polygon class="st8" points="604.7,702.9 522.2,681.6 569,648.2 645.3,663.4 		"/>
		<path class="st2" d="M604.7,705.6c-0.2,0-0.5,0-0.7-0.1l-82.5-21.3c-1-0.3-1.8-1.1-2-2.1s0.2-2.1,1.1-2.7l46.8-33.5
			c0.6-0.4,1.3-0.6,2.1-0.5l76.3,15.2c1,0.2,1.8,0.9,2,1.9c0.3,1,0,2-0.7,2.7l-40.5,39.5C606.1,705.3,605.4,705.6,604.7,705.6z
			 M528.4,680.5l75.5,19.5l35.8-34.9l-70.2-14L528.4,680.5z"/>
	</g>
	<g class="st9">
		<g class="st10">
			<g>
				<path class="st11" d="M570.8,667.4c3.8,0.3,7.1-1.6,7.3-4.3c0.2-2.6-2.8-5-6.6-5.3s-7.1,1.6-7.3,4.3S567,667.2,570.8,667.4z"/>
			</g>
			<g>
				<path class="st11" d="M570.2,679.9c4.4-4.6,7.6-9,3-11.3c-2,0.3-3.8,0.2-6.9-1c-2.7-1.1-1.8-1.6-4.7-3.3
					c-6.3-0.1-11.6,4.3-15,9.2C546.6,673.5,551.5,680.4,570.2,679.9z"/>
			</g>
		</g>
	</g>
	<g>
		<path class="st12" d="M617.8,672.6C617.8,672.6,617.7,672.6,617.8,672.6l-30.4-6c-0.2,0-0.4-0.3-0.3-0.5c0-0.2,0.3-0.4,0.5-0.3
			l30.3,6c0.2,0,0.4,0.3,0.3,0.5C618.2,672.5,618,672.6,617.8,672.6z"/>
	</g>
	<g>
		<path class="st12" d="M613.8,678.4L613.8,678.4l-30.4-6c-0.2,0-0.4-0.3-0.3-0.5c0-0.2,0.3-0.4,0.5-0.3l30.3,6
			c0.2,0,0.4,0.3,0.3,0.5C614.2,678.3,614,678.4,613.8,678.4z"/>
	</g>
	<g>
		<path class="st12" d="M609.8,685.2L609.8,685.2l-30.4-6c-0.2,0-0.4-0.3-0.3-0.5c0-0.2,0.3-0.4,0.5-0.3l30.3,6
			c0.2,0,0.4,0.3,0.3,0.5C610.2,685,610.1,685.2,609.8,685.2z"/>
	</g>
	<g>
		<path class="st2" d="M537.6,671c-1.2,0-2.3-0.6-3-1.6c-1.1-1.7-0.6-3.9,1-5c5-3.3,7.9-5.9,11-8.7s6.3-5.8,11.9-9.4l1.3-0.9
			l1.5,0.4c3.5,0.9,19.7-0.5,22.3-2.3c2-1.6,3.7-4.6,4.3-6.6c-4.4,0.5-9.8,0.8-19.6,0.4c-1.4,0-2.8-0.2-4.4-0.3
			c-5.2-0.4-11.7-0.9-14.8,1.5l-0.6,0.4l-25.7,13c-1.8,0.9-17.6,8.8-25.7,2.1c-0.5-0.5-3.4-2.5-6.5-4.8
			c-7.7-5.5-19.2-13.9-24.2-18.3c-9.3-8.2-71.3-80.1-73.9-83.2c-1.3-1.5-1.1-3.8,0.4-5c1.5-1.3,3.8-1.1,5,0.4
			c0.6,0.8,64.3,74.7,73.2,82.5c4.7,4.2,16.1,12.4,23.7,17.9c4.1,3,6.2,4.5,6.9,5c3.2,2.7,12.4-0.1,17.8-3l25.5-12.9
			c5.3-4,13.2-3.3,19.5-2.8c1.4,0.1,2.8,0.2,4.1,0.3c12,0.5,16.9-0.1,21.8-0.8l2-0.3l1.3,1.6c4.5,5.5-1.2,14.9-5.5,18.4
			c-4.2,3.5-20.5,4.5-26.8,3.9c-4.4,3-7,5.4-9.8,8c-3.1,2.8-6.4,5.8-11.9,9.4C539,670.8,538.3,671,537.6,671z"/>
	</g>
	<g>
		<path class="st8" d="M544.3,658c3.9-3.4,15.4-11.7,15.4-11.7s12.7,3,24.6-2.1c2-0.9,5.8-9.4,4.3-9.2c-5.9,0.8-20.6,3-29,0.7
			c0,0-9.8-0.4-16.4,5.1l-24.7,13.6"/>
	</g>
	<g>
		<path class="st6" d="M644.1,666.4"/>
	</g>
	<g>
		<path class="st2" d="M588.7,723.4c-1.4,0-2.8-0.9-3.3-2.3c-0.7-1.8,0.2-3.9,2-4.6c14.2-5.5,31-11.4,35.7-12.9l16.6-26.4
			c-1.2-1.1-3-2.4-4.9-2.2s-5.7,2-10.2,12.3c-0.4,1-1.6,2.6-5.6,8.3c-1.6,2.3-4,5.7-5.5,7.9c0,1-0.3,2-1.1,2.8
			c-2.7,2.6-4.7,1.9-5.8,0.9c-2.6-2.3-0.8-5,1.5-8.4c1.4-2.1,3.3-4.8,5.1-7.3c2-2.8,4.5-6.3,4.9-7.1c4.5-10.3,9.9-15.9,16-16.5
			c7.7-0.7,12.8,6.7,13,7l1.3,1.9l-20.6,32.8l-1.2,0.4c-0.2,0.1-20.2,6.8-36.5,13.2C589.6,723.3,589.1,723.4,588.7,723.4z"/>
	</g>
	<g>
		<path class="st2" d="M564.9,729c-6.2,0-12.5-2.8-20.3-6.1c-9.2-4-20.6-8.9-36.5-11.7c-21.1-3.7-31.9-12.5-32.1-26.3
			c0-2,1.5-3.6,3.5-3.6c1.9-0.1,3.6,1.5,3.6,3.5c0.2,10.2,8.5,16.4,26.2,19.4c16.7,2.9,28.6,8,38.1,12.2c8.4,3.6,14.4,6.2,19.5,5.4
			c2.5-0.4,5.2-0.4,8.4-0.5c7.9-0.1,18.7-0.2,32.2-6.7l16.9-9.1c-1.3-0.9-2.9-1.7-4.7-1.9c-2.5-0.3-4.9,0.5-7.5,2.5
			c-12.3,9.7-31.3,8.6-32.1,8.6c-2-0.1-3.5-1.8-3.3-3.8c0.1-2,1.8-3.5,3.8-3.3c0.2,0,17.1,0.9,27.2-7.1c4.1-3.2,8.4-4.5,12.8-4
			c7.6,1,12.5,7.3,12.7,7.6l2.5,3.3l-25.1,13.5c-15.1,7.3-26.8,7.4-35.4,7.5c-2.9,0-5.4,0.1-7.3,0.4C567,728.9,566,729,564.9,729z"
			/>
	</g>
	<g>
		<path class="st8" d="M580.5,714.8c0,0,12.4-0.4,23.4-4.8c10.3-4.1,8.8-7.1,18.4-6.6c0,0,5,0.7,7.3,3.1c0.8,0.8-4,1.2-10.6,3.7
			c-5,1.9-11,5.6-16.6,7.5c-8.8,3-20.1,3.2-20.1,3.2"/>
	</g>
	<g>
		<path class="st8" d="M616.4,698.2c0,0,9.7-19.5,14.7-22.7c5.1-3.3,7.8-2.1,9.4,1.3l-13.4,22C627,698.8,623.3,695.6,616.4,698.2z"
			/>
	</g>
	<g class="st13">
		<path class="st12" d="M583.7,652.8c0,0-16.7,7.9-23.5,6.5l-3.9,0.2l10.8-7.7c0,0,5.6,0.5,8.2-1.2L583.7,652.8z"/>
	</g>
	<g class="st0">
		<path class="st1" d="M521.1,683.5l34.5,8.5c0,0-5.8,7.1-9.3,4c-4-3.6-17.7-4.8-22.3-8c-3.5-2.5-12.7,2.8-12.7,2.8s0.7-6,9.8-8.7"
			/>
	</g>
	<g>
		<path class="st2" d="M510.5,693.3c-0.1,0-0.1,0-0.2,0c-0.3-0.1-0.5-0.5-0.4-0.8c0-0.1,0-0.1,0-0.3c0.5-7.6,9.4-10,16.7-10.7
			c0.4,0,0.7,0.2,0.7,0.6c0,0.4-0.2,0.7-0.6,0.7c-9.9,0.9-15.1,4.1-15.5,9.5c0,0.2,0,0.4-0.1,0.5
			C511.1,693.1,510.8,693.3,510.5,693.3z"/>
	</g>
	<g>
		<path class="st2" d="M595,704.9c-1.8,0-3.6-0.1-5.4-0.1c-1.9-0.1-3.8-0.1-5.3-0.1c-1,0-1.8-0.8-1.8-1.8s0.8-1.8,1.8-1.8
			c1.6,0,3.5,0,5.5,0.1c4.2,0.1,9,0.3,12.3-0.4c1-0.2,1.9,0.4,2.1,1.3s-0.4,1.9-1.3,2.1C600.6,704.8,597.8,704.9,595,704.9z"/>
	</g>
	<g>
		<path class="st2" d="M571.2,715.1c-0.3,0-0.5-0.2-0.6-0.4c-0.1-0.1-1.4-3.4-0.1-6.5c0.8-2,2.4-3.4,4.8-4.4c0.3-0.1,0.7,0,0.9,0.4
			c0.1,0.3,0,0.7-0.4,0.9c-2,0.8-3.4,2.1-4,3.7c-1.1,2.7,0.1,5.5,0.1,5.5c0.2,0.3,0,0.7-0.3,0.9
			C571.4,715.1,571.3,715.1,571.2,715.1z"/>
	</g>
</g>
<g id="lines">
	<line class="st14" x1="520" y1="410" x2="636.5" y2="663.5"/>
	<line class="st14" x1="506.5" y1="420.5" x2="617.5" y2="672.5"/>
	<line class="st14" x1="495.5" y1="430.5" x2="591.5" y2="678.5"/>
	<line class="st14" x1="484.5" y1="441.5" x2="556.5" y2="682.5"/>
	<line class="st14" x1="467.5" y1="454.5" x2="525.5" y2="679.5"/>
</g>
<linearGradient id="Path-64_1_" gradientUnits="userSpaceOnUse" x1="599.9556" y1="695.7071" x2="457.5307" y2="439.2567" gradientTransform="matrix(0.985 -2.040000e-02 -2.040000e-02 0.9723 16.4479 22.3264)">
	<stop  offset="0" style="stop-color:#DFF2FD;stop-opacity:0.3"/>
	<stop  offset="1" style="stop-color:#C3E1FF"/>
</linearGradient>
<path id="Path-64_2_" class="st15" d="M454,449l49,225c24,16,95,36,145-11L517.4,396.1L454,449z"/>
<g>
	<g id="XMLID_84_">
		<g>
			<path class="st2" d="M515.2,400.2c-22.8,18.6-45.5,37.1-68.3,55.7c-2.5,2.1-5.2-1.9-2.8-3.9c22.8-18.6,45.5-37.2,68.2-55.7
				C514.9,394.2,517.6,398.2,515.2,400.2z"/>
			<path class="st8" d="M435.6,454.1c9.2-7.6,18.5-15.1,27.8-22.7c14.1-11.5,28.1-22.9,42.2-34.4c4.2-3.4,8.8-9.5,14.9-5.5
				c8.2,5.3,2.4,11.6-2.4,15.6c-14.1,11.5-28.2,23-42.3,34.4c-4.8,3.9-9.6,8.7-16.2,13.2c-2.7,1.8-8,3.8-12.2,3.4
				C442.2,457.5,439.3,455.6,435.6,454.1z M444.1,452c-2.4,2,0.3,6,2.8,3.9c22.8-18.6,45.5-37.1,68.3-55.7c2.4-2-0.3-6-2.8-3.9
				C489.6,414.9,466.8,433.5,444.1,452z"/>
			<path class="st2" d="M435.6,454.1c-1.8,1.5-3.5,2.9-5.3,4.3c-2.1,1.7-4.3,0.2-5-1.7l0,0c-0.2-1.3,0.3-2.7,1.3-3.5
				c0.1-0.1,0.2-0.1,0.3-0.2c0.5-0.4,1.2-0.5,1.9-0.5C431.6,452.7,433.7,453.3,435.6,454.1z"/>
			<path class="st2" d="M463.5,431.5c-9.3,7.6-18.6,15.1-27.8,22.7c-1.9-0.8-4-1.4-6.8-1.6c-0.8,0-1.4,0.1-1.9,0.5
				c32.5-22.3,51.6-43,81-66c5.5-4.3,10.8-6,16.7-0.9c6.6,5.7,10,14.5,3.2,21.4c-11.8,12-26.9,21.9-40,32.5
				c-7.9,6.4-15.6,13.2-23.8,19.3c-1.5,1.1-2.5,2.3-4.3,2.7c-3.6,0.8-18.4,0.8-22.1,0.4c-6.2-0.6-3.5-2.8-9.8-3.3
				c-1.6-0.1-2.5-1.2-2.6-2.5c0.6,1.9,2.9,3.4,5,1.7c1.8-1.5,3.5-2.9,5.3-4.3c3.7,1.5,6.6,3.4,11.8,4c4.3,0.4,9.5-1.5,12.2-3.4
				c6.6-4.5,11.4-9.3,16.2-13.2c14.1-11.5,28.2-23,42.3-34.4c4.8-3.9,10.6-10.2,2.4-15.6c-6.2-4-10.7,2.1-14.9,5.5
				C491.6,408.6,477.5,420,463.5,431.5z"/>
			<path class="st16" d="M426.5,453.3C426.5,453.3,426.6,453.3,426.5,453.3c-0.9,0.7-1.4,2.2-1.2,3.4
				C425,455.5,425.2,454.2,426.5,453.3z"/>
		</g>
	</g>
</g>
<g>
	<g>
		<path class="st8" d="M441.3,466.1c0,0,32.9-5.4,37.3-6c0,0,2.8-0.8,5.3,0c5.9,1.8,2.9,12.3,0,13.8c-3.7,1.9-33.9,14.3-33.9,14.3
			S444.8,466.6,441.3,466.1z"/>
	</g>
	<g>
		<path class="st8" d="M453.7,493.7c-1,2.5-2.7,10.8-2.7,10.8s13.2-4.4,18.3-7.2c5-2.7,8.6-3,10.6-5.3c3.9-4.3,3.4-9.7,3.4-9.7
			S455,490.4,453.7,493.7z"/>
	</g>
	<g>
		<path class="st8" d="M471.3,504.2c0,0,0.3,9.2-16,14.1l-0.1-8.2L471.3,504.2z"/>
	</g>
</g>
<g>
	<g id="XMLID_82_">
		<g>
			<path class="st2" d="M489.2,479.1c-1.7,1.2-3.7,2.2-5.9,3.1c-0.2-1.1-0.6-2.3-1.2-3.5c-0.8-1.7-0.1-3.3,1.2-4
				c1.5-0.9,3.6-0.8,4.6,1.4C488.5,477.1,488.9,478.1,489.2,479.1z"/>
			<path class="st2" d="M483.3,474.7c-1.3,0.8-2,2.3-1.2,4c0.6,1.3,1,2.5,1.2,3.5c-10.2,4.4-23.8,6.7-29.6,11.4
				c-3.4,2.7-6.9-2.8-3.8-5.3c4.1-3.3,9.7-4.9,14.6-6.7c4-1.5,8.1-2.9,12.1-4.4c2.8-1.1,5-1.6,6.7-2.7V474.7z"/>
			<path class="st2" d="M476.5,497.6c0.5,1.2,0.8,2.3,1,3.4c-2,1.1-4,2.2-6.2,3.1c0.1-1.2-0.1-2.5-0.6-3.9c-0.8-2,0.4-3.8,1.9-4.4
				C474,495.3,475.7,495.7,476.5,497.6z"/>
			<path class="st2" d="M472.5,495.8c6.1-2.9,12-6.8,10.8-13.5c2.1-0.9,4.1-2,5.9-3.1c3.2,9.9-3,16.8-11.7,21.9
				c-0.2-1.1-0.5-2.2-1-3.4C475.7,495.7,474,495.3,472.5,495.8L472.5,495.8z"/>
			<path class="st2" d="M471.3,504.2c-7.1,3.2-14.8,5.5-20.1,7.3c-4,1.4-6.2-4.9-2.4-6.2c6.2-2.1,12.4-4.5,18.4-7.1
				c1.7-0.7,3.5-1.5,5.3-2.4v0.1c-1.5,0.6-2.7,2.4-1.9,4.4C471.2,501.7,471.4,503,471.3,504.2z"/>
			<path class="st2" d="M467.7,519.3c1.9,12.7-6.9,18.6-19.2,21.1c-19.3,3.9-37.6,4-55.5-5c-3.6-1.8-1.2-8.2,2.5-6.3
				c11.6,5.8,23.2,8,36,6.9c9.4-0.8,29.7-1.5,30.2-13.2C463.8,521.7,465.8,520.5,467.7,519.3z"/>
			<path class="st2" d="M467.1,516.3c0.3,1,0.5,2,0.6,3c-1.9,1.3-3.9,2.4-6,3.5c0-1.1-0.1-2.4-0.4-3.7c-0.5-1.9,0.5-3.5,1.9-4.3
				C464.7,513.8,466.6,514.1,467.1,516.3z"/>
			<path class="st2" d="M467.1,516.3c-0.6-2.2-2.4-2.5-3.9-1.6l-0.1-0.2c4-2.5,7.9-5.9,8.2-10.3c2.1-1,4.2-2,6.2-3.1
				c1.5,7.8-3.2,13.8-9.8,18.2C467.6,518.3,467.4,517.3,467.1,516.3z"/>
			<path class="st2" d="M461.3,519c0.3,1.3,0.5,2.6,0.4,3.7c-5.1,2.5-10.5,4.4-14.7,5.6c-4,1.2-4.6-5.6-0.8-6.7
				c0.5-0.2,1.2-0.4,1.3-0.4c1-0.3,1.9-0.7,2.9-1c3-1.1,6.1-2.3,9-3.8c1.1-0.5,2.4-1.2,3.6-2l0.1,0.2
				C461.9,515.5,460.8,517.1,461.3,519z"/>
			<path class="st2" d="M460,426.6c1.5-3,0.6-7-0.4-9c-2.2-4.2-18.7,8.7-23.1,9c-9,0.5-16.5,1.1-23.7,6.9
				c-10.8,8.7-13.9,20.9-20,32.7s-13.7,22.8-20.4,34.2c-2.2,3.8-7-0.6-4.9-4.1c8.6-14.5,18.4-28.3,24.7-43.9
				c4.1-10.2,9.7-19.1,18.8-25.7c7-5.1,14-6.1,22.5-6.7c7.5-0.5,24.1-10.5,27.2-6.8c4.5,5.4,4.1,10,1.9,13.9L460,426.6z"/>
			<path class="st2" d="M446.1,521.7L446.1,521.7C446,521.7,446,521.7,446.1,521.7z"/>
			<path class="st2" d="M431.4,467l-1.7-0.8l0,0c-0.9-1.8-0.2-4.7,2.3-5.2c1.6-0.3,3.2-0.6,4.8-0.9c0.7,1.8,1.1,3.5,0.7,5
				C437,467.3,433.2,467,431.4,467z"/>
			<path class="st2" d="M432,461c-2.5,0.5-3.2,3.3-2.3,5.2c-5.5-9.5-9.7-18.5,1.6-26.5c2.9-2,4.5-1.3,8.2-2
				c2.4-0.5,13.8-4.4,19.1-9.2c0.6-0.5,1-1.2,1.4-1.9l2.6,0.6c-1.6,2.9-4.2,5.4-6.6,7.6c-5.4,5.1-12.5,7.8-19.1,10.2
				c-7.4,2.7-2.3,9.4-0.1,15.2C435.2,460.4,433.6,460.7,432,461z"/>
			<path class="st2" d="M432.8,467.7c-1.5,0.3-2.5-0.5-3-1.5l1.7,0.8c1.8,0.1,5.6,0.3,6.1-1.9c0.3-1.5,0-3.1-0.7-5
				c12.6-2.4,25.3-4.7,38-6.2c8.7-1,16.2-0.2,19.6,9.2c2.7,7.5,0,12.4-5.3,16c-0.3-1-0.7-2-1.2-3.1c-1-2.1-3.1-2.2-4.6-1.4l-0.1-0.2
				c1.6-1.1,2.7-2.8,3.3-6.1c1.1-6-0.8-7.6-6.9-8.2c-1.7-0.2-3.8,0.4-5.5,0.6c-5.3,0.7-10.6,1.6-15.9,2.5
				C449.7,464.6,441.3,466.1,432.8,467.7z"/>
		</g>
	</g>
</g>
</svg>
